<svg
    xmlns="http://www.w3.org/2000/svg"
    viewBox="0 0 140 140"
    id="vector">
    <path
        id="path"
        d="M 70 70 M 6 70 C 6 53.033 12.747 36.743 24.745 24.745 C 36.743 12.747 53.033 6 70 6 C 86.967 6 103.257 12.747 115.255 24.745 C 127.253 36.743 134 53.033 134 70 C 134 86.967 127.253 103.257 115.255 115.255 C 103.257 127.253 86.967 134 70 134 C 53.033 134 36.743 127.253 24.745 115.255 C 12.747 103.257 6 86.967 6 70"
        fill="#ffb55c"/>
    <path
        id="path_1"
        d="M 97 36 L 97 29 C 97 28.735 96.895 28.48 96.707 28.293 C 96.52 28.105 96.265 28 96 28 L 46 28 C 45.735 28 45.48 28.105 45.293 28.293 C 45.105 28.48 45 28.735 45 29 L 45 36 C 45 36.265 45.105 36.52 45.293 36.707 C 45.48 36.895 45.735 37 46 37 L 51 37 C 50 40.1 50 43.84 50 48 C 50 55.3 58.31 64.89 64.48 71 C 58.31 77.11 50 86.7 50 94 C 50 98.16 50 101.9 51 105 L 46 105 C 45.735 105 45.48 105.105 45.293 105.293 C 45.105 105.48 45 105.735 45 106 L 45 113 C 45 113.265 45.105 113.52 45.293 113.707 C 45.48 113.895 45.735 114 46 114 L 96 114 C 96.265 114 96.52 113.895 96.707 113.707 C 96.895 113.52 97 113.265 97 113 L 97 106 C 97 105.735 96.895 105.48 96.707 105.293 C 96.52 105.105 96.265 105 96 105 L 91 105 C 92 101.9 92 98.16 92 94 C 92 86.7 83.69 77.11 77.52 71 C 83.69 64.89 92 55.3 92 48 C 92 43.84 92 40.1 91 37 L 96 37 C 96.265 37 96.52 36.895 96.707 36.707 C 96.895 36.52 97 36.265 97 36 Z"
        fill="#525354"/>
    <path
        id="path_2"
        d="M 96 35 L 96 28 C 96 27.735 95.895 27.48 95.707 27.293 C 95.52 27.105 95.265 27 95 27 L 45 27 C 44.735 27 44.48 27.105 44.293 27.293 C 44.105 27.48 44 27.735 44 28 L 44 35 C 44 35.265 44.105 35.52 44.293 35.707 C 44.48 35.895 44.735 36 45 36 L 50 36 C 49 39.1 49 42.84 49 47 C 49 54.3 57.31 63.89 63.48 70 C 57.31 76.11 49 85.7 49 93 C 49 97.16 49 100.9 50 104 L 45 104 C 44.735 104 44.48 104.105 44.293 104.293 C 44.105 104.48 44 104.735 44 105 L 44 112 C 44 112.265 44.105 112.52 44.293 112.707 C 44.48 112.895 44.735 113 45 113 L 95 113 C 95.265 113 95.52 112.895 95.707 112.707 C 95.895 112.52 96 112.265 96 112 L 96 105 C 96 104.735 95.895 104.48 95.707 104.293 C 95.52 104.105 95.265 104 95 104 L 90 104 C 91 100.9 91 97.16 91 93 C 91 85.7 82.69 76.11 76.52 70 C 82.69 63.89 91 54.3 91 47 C 91 42.84 91 39.1 90 36 L 95 36 C 95.265 36 95.52 35.895 95.707 35.707 C 95.895 35.52 96 35.265 96 35 Z"
        fill="#ffffff"/>
    <path
        id="path_3"
        d="M 87.575 47 C 87.575 56.59 70.235 71 70.235 71 C 70.235 71 52.895 56.59 52.895 47 C 52.895 37.41 52.895 30.5 70.235 30.5 C 87.575 30.5 87.575 37.44 87.575 47 Z"
        fill="#ffb55c"/>
    <path
        id="path_4"
        d="M 86.87 93 C 86.87 83.41 69.53 69 69.53 69 C 69.53 69 52.19 83.41 52.19 93 C 52.19 102.59 52.19 109.51 69.53 109.51 C 86.87 109.51 86.87 102.56 86.87 93 Z"
        fill="#ffb55c"/>
    <path
        id="path_5"
        d="M 87.13 99.09 C 87.13 99.4 87.06 99.7 87.01 100 C 86.11 105.77 82.72 109.5 70.01 109.5 C 57.3 109.5 53.9 105.77 53.01 100 C 53.01 99.7 52.92 99.4 52.89 99.09 C 56.34 91.41 66.79 82.83 69.37 80.6 C 69.551 80.445 69.782 80.36 70.02 80.36 C 70.258 80.36 70.489 80.445 70.67 80.6 C 73.23 82.83 83.68 91.41 87.13 99.09 Z"
        fill="#bd5500"/>
    <path
        id="path_6"
        d="M 86.51 51 C 83.51 58.9 73.33 68.08 70.65 70.4 C 70.469 70.555 70.238 70.64 70 70.64 C 69.762 70.64 69.531 70.555 69.35 70.4 C 66.67 68.08 56.47 58.9 53.49 51 L 86.51 51 Z"
        fill="#bd5500"/>
</svg>
